<?xml version="1.0" encoding="utf-8"?>
<!-- Generator: Adobe Illustrator 20.1.0, SVG Export Plug-In . SVG Version: 6.00 Build 0)  -->
<svg version="1.1" id="Layer_1" xmlns="http://www.w3.org/2000/svg" xmlns:xlink="http://www.w3.org/1999/xlink" x="0px" y="0px"
	 viewBox="0 0 81.6 100" style="enable-background:new 0 0 81.6 100;" xml:space="preserve">
<path d="M-162-121.8h-2.1c0-33.3,0-66.7,0-100h53.9v2.1H-162v46.6h45.8v2.3H-162V-121.8z"/>
<path d="M65.6-154.9H15.8L2.4-121.8H0l39.6-100H42l39.6,100h-2.4L65.6-154.9z M16.8-157h48l-24.1-61.8L16.8-157z"/>
<path d="M209.9-123.2h54.7v2.3c-19.1,0-38,0-57.1,0v-101.7h2.3V-123.2z"/>
<path d="M392.5-123.2h54.7v2.3c-19.1,0-38,0-57,0v-101.7h2.3V-123.2z"/>
</svg>
