<?xml version="1.0" encoding="utf-8"?>
<!-- Generator: Adobe Illustrator 20.1.0, SVG Export Plug-In . SVG Version: 6.00 Build 0)  -->
<svg version="1.1" id="Layer_1" xmlns="http://www.w3.org/2000/svg" xmlns:xlink="http://www.w3.org/1999/xlink" x="0px" y="0px"
	 viewBox="0 0 81.6 100" style="enable-background:new 0 0 81.6 100;" xml:space="preserve">
<path d="M-193.5,100h-2.1c0-33.3,0-66.7,0-100h53.9v2.1h-51.8v46.6h45.8v2.3h-45.8V100z"/>
<path d="M65.6-100.9H15.8L2.4-67.8H0l39.6-100H42l39.6,100h-2.4L65.6-100.9z M16.8-103h48l-24.1-61.8L16.8-103z"/>
<path d="M14.5,97.7h53.8v2.3c-18.7,0-37.3,0-56.1,0V0h2.3V97.7z"/>
<path d="M392.5-123.2h54.7v2.3c-19.1,0-38,0-57,0v-101.7h2.3V-123.2z"/>
</svg>
