<?xml version="1.0" encoding="utf-8"?>
<!-- Generator: Adobe Illustrator 19.2.1, SVG Export Plug-In . SVG Version: 6.00 Build 0)  -->
<svg version="1.1" id="Layer_1" xmlns="http://www.w3.org/2000/svg" xmlns:xlink="http://www.w3.org/1999/xlink" x="0px" y="0px"
	 viewBox="0 0 595.6 64.1" style="enable-background:new 0 0 595.6 64.1;" xml:space="preserve">
<style type="text/css">
	.st0{fill:#414042;stroke:#414042;stroke-width:0.576;stroke-miterlimit:10;}
</style>
<g>
	<path class="st0" d="M9.5,9.6c5.6-5.8,13.6-9.3,22.2-9.3c8.7,0,16.6,3.5,22.3,9.3c5.6,5.7,9.3,13.7,9.3,22.4s-3.6,16.7-9.3,22.4
		c-5.7,5.8-13.6,9.3-22.3,9.3c-8.6,0-16.6-3.5-22.2-9.3C3.9,48.7,0.3,40.8,0.3,32S3.9,15.4,9.5,9.6z M53.1,10.7
		c-5.5-5.6-13-9-21.3-9s-15.8,3.4-21.2,9c-5.4,5.5-8.8,13-8.8,21.3c0,8.4,3.4,15.9,8.8,21.3c5.5,5.6,13,9,21.2,9s15.9-3.4,21.3-9
		c5.4-5.5,8.7-13,8.7-21.3C61.8,23.7,58.5,16.2,53.1,10.7z"/>
	<path class="st0" d="M90.1,1.3c40.5,0,40.5,61.6,0,61.6H69.3c0-20.5,0-41.1,0-61.6H90.1z M90.1,61.6c38.7,0,38.7-59,0-59H70.6
		c0,19.1,0,39.8,0,59H90.1z"/>
	<path class="st0" d="M147.5,1.3c40.5,0,40.5,61.6,0,61.6h-20.8c0-20.5,0-41.1,0-61.6H147.5z M147.5,61.6c38.7,0,38.7-59,0-59H128
		c0,19.1,0,39.8,0,59H147.5z"/>
	<path class="st0" d="M222.7,14.1c-0.5-2.6-1.6-4.8-3.4-6.7c-3.8-4.1-9.9-5.7-15.4-5.6c-5.8,0.1-12.4,2.2-16.1,7.1
		c-2.2,2.7-3,6-2.7,9.4c1.6,21.6,36.2,4.7,40.5,24.4c2.8,13-9.6,20.8-21.3,20.8c-9,0-19.9-5.1-21-15.1l-0.1-0.6l1.4-0.2l0.1,0.6
		c1,9.3,11.3,13.9,19.7,13.9c10.8,0,22.4-7,19.8-19.2c-4-18.3-38.8-1.6-40.4-24.6c-0.4-3.7,0.6-7.3,2.9-10.3
		c9-11.6,34.4-10.1,37.4,5.8l0.1,0.7l-1.3,0.3L222.7,14.1z"/>
	<path class="st0" d="M281.6,63.1V2.6h-21.3V1.2h44v1.4h-21.3v60.6H281.6z"/>
	<path class="st0" d="M312.8,9.6c5.6-5.8,13.6-9.3,22.2-9.3c8.7,0,16.6,3.5,22.3,9.3c5.6,5.7,9.3,13.7,9.3,22.4s-3.6,16.7-9.3,22.4
		c-5.7,5.8-13.6,9.3-22.3,9.3c-8.6,0-16.6-3.5-22.2-9.3c-5.6-5.7-9.3-13.7-9.3-22.4S307.1,15.4,312.8,9.6z M356.3,10.7
		c-5.5-5.6-13-9-21.3-9s-15.8,3.4-21.2,9c-5.4,5.5-8.8,13-8.8,21.3c0,8.4,3.4,15.9,8.8,21.3c5.5,5.6,13,9,21.2,9s15.9-3.4,21.3-9
		c5.4-5.5,8.7-13,8.7-21.3C365.1,23.7,361.7,16.2,356.3,10.7z"/>
	<path class="st0" d="M405.1,61.6h32.8v1.3h-34h-0.2V1.3h34v1.3h-32.6v28.7H437v1.4h-31.9V61.6z"/>
	<path class="st0" d="M444.3,62.9V1.1l1.2,0.1l41,59.2V1.2h1.3v61.7h-1.4L445.7,4v58.9H444.3z"/>
	<path class="st0" d="M516.9,1.3c40.5,0,40.5,61.6,0,61.6h-20.8c0-20.5,0-41.1,0-61.6H516.9z M516.9,61.6c38.7,0,38.7-59,0-59h-19.5
		c0,19.1,0,39.8,0,59H516.9z"/>
	<path class="st0" d="M592.1,14.1c-0.5-2.6-1.6-4.8-3.3-6.7c-3.8-4.1-9.9-5.7-15.4-5.6c-5.8,0.1-12.4,2.2-16.1,7.1
		c-2.2,2.7-3,6-2.7,9.4c1.6,21.6,36.2,4.7,40.5,24.4c2.8,13-9.6,20.8-21.3,20.8c-9,0-19.9-5.1-21-15.1l-0.1-0.6l1.4-0.2l0.1,0.6
		c1,9.3,11.3,13.9,19.7,13.9c10.8,0,22.4-7,19.8-19.2c-4-18.3-38.8-1.6-40.4-24.6c-0.4-3.7,0.6-7.3,2.9-10.3
		c9-11.6,34.4-10.1,37.4,5.8l0.1,0.7l-1.3,0.3L592.1,14.1z"/>
</g>
</svg>
